<svg xmlns="http://www.w3.org/2000/svg" xmlns:xlink="http://www.w3.org/1999/xlink" width="1000" height="1000" viewBox="0 0 1000 1000"><defs><radialGradient id="a" cx="0.5" cy="0.5" r="0.5" gradientUnits="objectBoundingBox"><stop offset="0" stop-color="#b7b7b7"/><stop offset="1"/></radialGradient><clipPath id="c"><rect width="1000" height="1000"/></clipPath></defs><g id="b" clip-path="url(#c)"><rect width="1000" height="1000" fill="url(#a)"/><g transform="translate(137.101 137.101)" opacity="0.78"><path d="M719.3,362.9c0,196.834-159.565,356.4-356.4,356.4S6.5,559.733,6.5,362.9,166.066,6.5,362.9,6.5c196.493.822,355.578,159.907,356.4,356.4Z" transform="translate(0 0)" fill="#e8e8e8"/><g transform="translate(39.092 85.589)"><path d="M22.622,181.032a10.591,10.591,0,0,1-2.151-.217,10.847,10.847,0,0,1-8.5-12.775A330.943,330.943,0,0,1,71.241,35.782,10.847,10.847,0,0,1,88.6,48.8,309.069,309.069,0,0,0,33.234,172.342,10.859,10.859,0,0,1,22.622,181.032Z" transform="translate(-11.758 44.071)" fill="#cdcdcd"/><path d="M39.361,66.429A10.847,10.847,0,0,1,32.239,47.4,332.508,332.508,0,0,1,66.912,21.058a10.846,10.846,0,1,1,11.957,18.1,311.247,311.247,0,0,0-32.4,24.618A10.8,10.8,0,0,1,39.361,66.429Z" transform="translate(75.336 -19.26)" fill="#cdcdcd"/><circle cx="54.83" cy="54.83" r="54.83" transform="translate(208.526 52.779)" fill="#cdcdcd"/><path d="M192.018,83.037a355.011,355.011,0,0,1-36.136,100.1,54.842,54.842,0,1,1,36.136-100.1Z" transform="translate(481.37 263.942)" fill="#cdcdcd"/><circle cx="54.83" cy="54.83" r="54.83" transform="translate(101.036 311.872)" fill="#cdcdcd"/><circle cx="37.189" cy="37.189" r="37.189" transform="translate(393.141 416.598)" fill="#cdcdcd"/><circle cx="37.189" cy="37.189" r="37.189" transform="translate(436.566 167.552)" fill="#cdcdcd"/><circle cx="18.595" cy="18.595" r="18.595" transform="translate(424.089 96.799)" fill="#cdcdcd"/></g></g><g transform="translate(303.558 303.559)"><path d="M170.057,137.827a11.512,11.512,0,0,0-10.752-5.558l-93.459,7.219A30.35,30.35,0,0,0,42.72,153.1L3.5,212.418a21.021,21.021,0,0,0,14.318,32.368L93.6,256.524a11.491,11.491,0,0,0,11.451-5.171l64.831-101.424A11.5,11.5,0,0,0,170.057,137.827Z" transform="translate(0 -30.848)" fill="#e45a6e"/><path d="M336.319,289.708a11.5,11.5,0,0,0-12.1.176L222.793,354.716a11.5,11.5,0,0,0-5.172,11.451l11.737,75.782a21.007,21.007,0,0,0,32.369,14.318l59.323-39.222a30.341,30.341,0,0,0,13.607-23.126l7.219-93.458a11.5,11.5,0,0,0-5.558-10.753Z" transform="translate(-50.736 -67.203)" fill="#d82e44"/><path d="M169.34,316.1a20.062,20.062,0,0,0,17.466,5.651c93.625-15.655,167.713-93.173,195.918-147.7C414.043,113.5,415.2,49.509,413.566,19.5A20.159,20.159,0,0,0,394.525.458c-30.009-1.636-94-.476-154.547,30.844-54.53,28.205-132.049,102.292-147.7,195.918a20.064,20.064,0,0,0,5.651,17.466Z" transform="translate(-21.463 0)" fill="#f1f1fb"/><path d="M420.357,8.261,146.3,282.32l35.708,35.708a20.064,20.064,0,0,0,17.466,5.651c93.625-15.655,167.712-93.173,195.918-147.7,31.32-60.551,32.48-124.538,30.843-154.547a20.125,20.125,0,0,0-5.875-13.167Z" transform="translate(-34.129 -1.927)" fill="#d7d6fb"/><path d="M333.235,201.262A57.458,57.458,0,1,1,373.9,184.446,57.314,57.314,0,0,1,333.235,201.262Zm-32.53-90.006h.008Z" transform="translate(-64.323 -20.134)" fill="#466288"/><path d="M92.274,278.686a20.064,20.064,0,0,0,5.651,17.466l71.415,71.415a20.064,20.064,0,0,0,17.466,5.651,229.892,229.892,0,0,0,58.069-18.134L110.408,220.618a229.888,229.888,0,0,0-18.134,58.068Z" transform="translate(-21.463 -51.466)" fill="#466288"/><path d="M11.8,403.515a11.464,11.464,0,0,0,8.132-3.369L57.485,362.6a11.5,11.5,0,0,0-16.264-16.264L3.673,383.881A11.5,11.5,0,0,0,11.8,403.515Z" transform="translate(-0.071 -80.008)" fill="#fdb43a"/><path d="M91.826,391.215a11.5,11.5,0,0,0-16.264,0L3.372,463.4a11.5,11.5,0,1,0,16.264,16.264l72.189-72.19A11.5,11.5,0,0,0,91.826,391.215Z" transform="translate(-0.001 -90.478)" fill="#fdb43a"/><path d="M147.247,436.1a11.5,11.5,0,0,0-16.264,0L93.435,473.644A11.5,11.5,0,1,0,109.7,489.908l37.548-37.548A11.5,11.5,0,0,0,147.247,436.1Z" transform="translate(-21.011 -100.948)" fill="#f57a21"/><path d="M4.4,480.694a11.5,11.5,0,0,0,16.264,0L92.851,408.5a11.5,11.5,0,0,0,0-16.264Z" transform="translate(-1.026 -91.503)" fill="#f57a21"/><path d="M146.3,352.316l35.708,35.708a20.064,20.064,0,0,0,17.466,5.651A229.894,229.894,0,0,0,257.54,375.54l-67.233-67.233Z" transform="translate(-34.129 -71.923)" fill="#354a67"/><path d="M297.7,189.563A57.5,57.5,0,0,0,379.02,108.24Z" transform="translate(-69.448 -25.251)" fill="#354a67"/><path d="M340.232,116.295a34.473,34.473,0,1,0,24.4,10.088,34.392,34.392,0,0,0-24.4-10.088Z" transform="translate(-71.321 -27.13)" fill="#4bbefd"/><path d="M367.7,129.454l-48.793,48.793A34.5,34.5,0,0,0,367.7,129.454Z" transform="translate(-74.396 -30.199)" fill="#0590fb"/></g><path d="M-10214.748-5142.66a6.43,6.43,0,0,1-5.56-3.21,6.373,6.373,0,0,1-.642-4.873,6.364,6.364,0,0,1,2.99-3.891,6.407,6.407,0,0,1,3.2-.862,6.445,6.445,0,0,1,5.563,3.207,6.436,6.436,0,0,1-2.35,8.77A6.442,6.442,0,0,1-10214.748-5142.66Zm-567.759-12.24a5.362,5.362,0,0,1-3.559-1.345,19.74,19.74,0,0,0-13.041-4.92,19.808,19.808,0,0,0-3.945.4,5.352,5.352,0,0,1-1.081.111,5.379,5.379,0,0,1-4.644-2.684,5.355,5.355,0,0,1,.637-6.244,19.836,19.836,0,0,0,4.279-7.947,19.838,19.838,0,0,0,.295-9.022,5.352,5.352,0,0,1,2.576-5.717,5.362,5.362,0,0,1,2.682-.72,5.375,5.375,0,0,1,3.559,1.346,19.728,19.728,0,0,0,13.038,4.92,19.793,19.793,0,0,0,3.945-.4,5.386,5.386,0,0,1,1.078-.11,5.379,5.379,0,0,1,4.646,2.683,5.36,5.36,0,0,1-.634,6.246,19.851,19.851,0,0,0-4.283,7.946,19.822,19.822,0,0,0-.3,9.022,5.357,5.357,0,0,1-2.572,5.718A5.381,5.381,0,0,1-10782.507-5154.9Zm-10.293-23.189a30.936,30.936,0,0,1-1.758,6.542,30.616,30.616,0,0,1,6.54,1.746,30.689,30.689,0,0,1,1.76-6.54,30.7,30.7,0,0,1-6.542-1.749Zm189.051,6.326a5.362,5.362,0,0,1-3.559-1.348,19.725,19.725,0,0,0-13.039-4.921,19.791,19.791,0,0,0-3.947.4,5.354,5.354,0,0,1-1.077.109,5.372,5.372,0,0,1-4.645-2.682,5.358,5.358,0,0,1,.634-6.246,19.87,19.87,0,0,0,4.277-7.946,19.845,19.845,0,0,0,.294-9.021,5.363,5.363,0,0,1,2.576-5.716,5.368,5.368,0,0,1,2.681-.719,5.366,5.366,0,0,1,3.56,1.348,19.723,19.723,0,0,0,13.038,4.92,19.772,19.772,0,0,0,3.945-.4,5.326,5.326,0,0,1,1.082-.111,5.377,5.377,0,0,1,4.643,2.683,5.364,5.364,0,0,1-.637,6.246,19.836,19.836,0,0,0-4.279,7.947,19.873,19.873,0,0,0-.3,9.021l0,0a5.364,5.364,0,0,1-2.571,5.719A5.358,5.358,0,0,1-10603.749-5171.763Zm-10.3-23.186a30.729,30.729,0,0,1-1.76,6.537,30.74,30.74,0,0,1,6.542,1.749,30.765,30.765,0,0,1,1.758-6.54,30.7,30.7,0,0,1-6.54-1.746Zm-66.967,11.531a7.5,7.5,0,0,1-6.477-3.737,7.483,7.483,0,0,1,2.734-10.205,7.474,7.474,0,0,1,3.73-1,7.49,7.49,0,0,1,6.475,3.738,7.492,7.492,0,0,1-2.733,10.205A7.485,7.485,0,0,1-10681.012-5183.417Zm151.008-9.135a9.637,9.637,0,0,1-4.729-1.243,9.566,9.566,0,0,1-3.575-3.545,9.515,9.515,0,0,1-.956-7.268,9.52,9.52,0,0,1,4.462-5.817,9.579,9.579,0,0,1,4.778-1.284,9.628,9.628,0,0,1,4.729,1.243,9.56,9.56,0,0,1,3.575,3.549,9.524,9.524,0,0,1,.953,7.265,9.526,9.526,0,0,1-4.456,5.817A9.584,9.584,0,0,1-10530-5192.552Zm86.167-13.944a6.442,6.442,0,0,1-5.565-3.21,6.425,6.425,0,0,1,2.349-8.766,6.407,6.407,0,0,1,3.2-.861,6.447,6.447,0,0,1,5.566,3.208,6.392,6.392,0,0,1,.638,4.871,6.391,6.391,0,0,1-2.988,3.9A6.425,6.425,0,0,1-10443.837-5206.5Zm218.329-6.4a5.356,5.356,0,0,1-3.556-1.348,19.758,19.758,0,0,0-13.051-4.918,19.81,19.81,0,0,0-3.936.4,5.36,5.36,0,0,1-1.089.112,5.371,5.371,0,0,1-4.639-2.682,5.351,5.351,0,0,1,.637-6.246,19.84,19.84,0,0,0,4.281-7.946,19.836,19.836,0,0,0,.3-9.021,5.364,5.364,0,0,1,2.575-5.719,5.358,5.358,0,0,1,2.679-.718,5.365,5.365,0,0,1,3.56,1.35,19.739,19.739,0,0,0,13.044,4.918,19.856,19.856,0,0,0,3.939-.4,5.366,5.366,0,0,1,1.084-.111,5.373,5.373,0,0,1,4.641,2.681,5.357,5.357,0,0,1-.634,6.246,19.843,19.843,0,0,0-4.282,7.948,19.854,19.854,0,0,0-.295,9.023,5.353,5.353,0,0,1-2.575,5.713A5.352,5.352,0,0,1-10225.508-5212.9Zm-10.293-23.189a30.792,30.792,0,0,1-1.757,6.54,30.775,30.775,0,0,1,6.542,1.746,30.891,30.891,0,0,1,1.758-6.537,30.511,30.511,0,0,1-6.543-1.749Zm189.051,6.326a5.347,5.347,0,0,1-3.556-1.348,19.739,19.739,0,0,0-13.043-4.921,19.8,19.8,0,0,0-3.943.4,5.4,5.4,0,0,1-1.08.11,5.381,5.381,0,0,1-4.647-2.682,5.356,5.356,0,0,1,.637-6.244,19.851,19.851,0,0,0,4.279-7.948,19.836,19.836,0,0,0,.295-9.022,5.356,5.356,0,0,1,2.574-5.716,5.37,5.37,0,0,1,2.682-.72,5.367,5.367,0,0,1,3.558,1.349,19.731,19.731,0,0,0,13.039,4.92,19.77,19.77,0,0,0,3.944-.4,5.412,5.412,0,0,1,1.08-.11,5.379,5.379,0,0,1,4.645,2.682,5.36,5.36,0,0,1-.637,6.244,19.853,19.853,0,0,0-4.278,7.947,19.868,19.868,0,0,0-.3,9.023,5.342,5.342,0,0,1-2.571,5.713A5.336,5.336,0,0,1-10046.75-5229.763Zm-10.3-23.189a30.668,30.668,0,0,1-1.76,6.54,30.866,30.866,0,0,1,6.545,1.749,31.075,31.075,0,0,1,1.755-6.54,30.694,30.694,0,0,1-6.54-1.749Zm-66.967,11.534a7.486,7.486,0,0,1-6.474-3.737,7.415,7.415,0,0,1-.748-5.669,7.423,7.423,0,0,1,3.479-4.539,7.48,7.48,0,0,1,3.729-1,7.5,7.5,0,0,1,6.479,3.737,7.486,7.486,0,0,1-2.734,10.2A7.471,7.471,0,0,1-10124.013-5241.417Zm151.008-9.134a9.64,9.64,0,0,1-4.729-1.243,9.574,9.574,0,0,1-3.575-3.548,9.516,9.516,0,0,1-.956-7.267,9.519,9.519,0,0,1,4.465-5.815,9.576,9.576,0,0,1,4.779-1.285,9.626,9.626,0,0,1,4.727,1.243,9.569,9.569,0,0,1,3.576,3.548,9.528,9.528,0,0,1,.953,7.266,9.532,9.532,0,0,1-4.458,5.816A9.568,9.568,0,0,1-9973-5250.552Zm-417.829-5.565a8.07,8.07,0,0,1-6.974-4.025,7.992,7.992,0,0,1-.8-6.106,7.986,7.986,0,0,1,3.747-4.884,8.044,8.044,0,0,1,4.019-1.081,8.088,8.088,0,0,1,3.972,1.044,8.03,8.03,0,0,1,3,2.98,7.994,7.994,0,0,1,.8,6.107,7.99,7.99,0,0,1-3.748,4.886A8.065,8.065,0,0,1-10390.834-5256.117Zm-186.83-6.084a5.386,5.386,0,0,1-4.653-2.683,5.328,5.328,0,0,1-.537-4.07,5.327,5.327,0,0,1,2.5-3.257l5.933-3.427a5.369,5.369,0,0,1,2.677-.72,5.381,5.381,0,0,1,4.651,2.683,5.327,5.327,0,0,1,.537,4.073,5.317,5.317,0,0,1-2.5,3.255l-5.933,3.426A5.343,5.343,0,0,1-10577.664-5262.2Zm-137.168-25.083a5.381,5.381,0,0,1-4.65-2.683,5.372,5.372,0,0,1,1.967-7.328l5.929-3.427a5.364,5.364,0,0,1,2.678-.72,5.388,5.388,0,0,1,4.653,2.686,5.323,5.323,0,0,1,.536,4.069,5.331,5.331,0,0,1-2.5,3.256l-5.937,3.427A5.352,5.352,0,0,1-10714.832-5287.285Zm-20.685-8.7a5.389,5.389,0,0,1-4.651-2.682,5.373,5.373,0,0,1,1.964-7.331l5.934-3.424a5.368,5.368,0,0,1,2.678-.719,5.375,5.375,0,0,1,4.646,2.679,5.337,5.337,0,0,1,.537,4.073,5.328,5.328,0,0,1-2.5,3.257l-5.931,3.426A5.385,5.385,0,0,1-10735.517-5295.988Zm-130.307-4.264a5.385,5.385,0,0,1-4.651-2.685,5.326,5.326,0,0,1-.534-4.069,5.322,5.322,0,0,1,2.5-3.256l5.931-3.427a5.366,5.366,0,0,1,2.679-.72,5.383,5.383,0,0,1,4.651,2.684,5.375,5.375,0,0,1-1.962,7.328l-5.936,3.427A5.358,5.358,0,0,1-10865.823-5300.252Zm-28.431-4.234a5.389,5.389,0,0,1-4.651-2.682,5.33,5.33,0,0,1-.534-4.071,5.332,5.332,0,0,1,2.5-3.259l13.678-7.894a5.355,5.355,0,0,1,2.678-.721,5.379,5.379,0,0,1,4.647,2.681,5.375,5.375,0,0,1-1.962,7.331l-13.677,7.894A5.364,5.364,0,0,1-10894.254-5304.486Zm47.177-6.589a5.391,5.391,0,0,1-4.653-2.682,5.374,5.374,0,0,1,1.965-7.328l15.967-9.219a5.358,5.358,0,0,1,2.678-.721,5.385,5.385,0,0,1,4.649,2.684,5.375,5.375,0,0,1-1.962,7.331l-15.967,9.217A5.379,5.379,0,0,1-10847.077-5311.075Zm847.1-.423a5.384,5.384,0,0,1-4.651-2.682,5.33,5.33,0,0,1-.533-4.07,5.328,5.328,0,0,1,2.5-3.258l5.932-3.426a5.373,5.373,0,0,1,2.677-.719,5.392,5.392,0,0,1,4.654,2.685,5.37,5.37,0,0,1-1.966,7.325l-5.933,3.426A5.358,5.358,0,0,1-9999.979-5311.5Zm-867.785-8.28a5.385,5.385,0,0,1-4.651-2.685,5.32,5.32,0,0,1-.536-4.068,5.325,5.325,0,0,1,2.5-3.26l10.09-5.826a5.357,5.357,0,0,1,2.676-.72,5.385,5.385,0,0,1,4.651,2.683,5.373,5.373,0,0,1-1.962,7.328l-10.094,5.829A5.363,5.363,0,0,1-10867.765-5319.778Zm847.1-.423a5.379,5.379,0,0,1-4.648-2.683,5.373,5.373,0,0,1,1.961-7.331l5.937-3.424a5.357,5.357,0,0,1,2.675-.718,5.386,5.386,0,0,1,4.651,2.682,5.376,5.376,0,0,1-1.962,7.331l-5.936,3.424A5.385,5.385,0,0,1-10020.667-5320.2Zm39.432-2.12a5.381,5.381,0,0,1-4.648-2.683,5.33,5.33,0,0,1-.536-4.072,5.33,5.33,0,0,1,2.5-3.256l23.709-13.687a5.365,5.365,0,0,1,2.68-.721,5.387,5.387,0,0,1,4.651,2.681,5.373,5.373,0,0,1-1.966,7.331l-23.708,13.687A5.357,5.357,0,0,1-9981.235-5322.321Zm-732.731-6.76a5.384,5.384,0,0,1-4.651-2.682,5.373,5.373,0,0,1,1.967-7.328l23.708-13.689a5.367,5.367,0,0,1,2.677-.719,5.386,5.386,0,0,1,4.65,2.682,5.33,5.33,0,0,1,.536,4.072,5.327,5.327,0,0,1-2.5,3.256l-23.712,13.689A5.336,5.336,0,0,1-10713.967-5329.081Zm-89.879-1.792a5.359,5.359,0,0,1-3.558-1.348,30.068,30.068,0,0,0-19.859-7.492,30.118,30.118,0,0,0-6,.606,5.4,5.4,0,0,1-1.079.11,5.384,5.384,0,0,1-4.648-2.683,5.356,5.356,0,0,1,.637-6.244,30.229,30.229,0,0,0,6.518-12.1,30.239,30.239,0,0,0,.448-13.739,5.364,5.364,0,0,1,2.573-5.719,5.368,5.368,0,0,1,2.681-.719,5.365,5.365,0,0,1,3.56,1.35,30.055,30.055,0,0,0,19.865,7.493,30.151,30.151,0,0,0,6-.6,5.414,5.414,0,0,1,1.081-.11,5.385,5.385,0,0,1,4.646,2.68,5.36,5.36,0,0,1-.637,6.246,30.243,30.243,0,0,0-6.518,12.1,30.225,30.225,0,0,0-.45,13.738,5.351,5.351,0,0,1-2.573,5.715A5.353,5.353,0,0,1-10803.846-5330.873Zm-16.36-33.7a40.91,40.91,0,0,1-3.839,14.261,40.932,40.932,0,0,1,14.27,3.811,40.934,40.934,0,0,1,3.838-14.263,40.836,40.836,0,0,1-14.269-3.808Zm818.282,33.548a5.38,5.38,0,0,1-4.647-2.685,5.324,5.324,0,0,1-.536-4.07,5.335,5.335,0,0,1,2.5-3.258l17.837-10.3a5.35,5.35,0,0,1,2.676-.72,5.384,5.384,0,0,1,4.651,2.683,5.335,5.335,0,0,1,.537,4.072,5.328,5.328,0,0,1-2.5,3.256l-17.838,10.3A5.36,5.36,0,0,1-10001.924-5331.024Zm-881.781-.2a5.388,5.388,0,0,1-4.651-2.683,5.373,5.373,0,0,1,1.964-7.331l5.934-3.426a5.376,5.376,0,0,1,2.677-.717,5.386,5.386,0,0,1,4.652,2.683,5.334,5.334,0,0,1,.535,4.071,5.324,5.324,0,0,1-2.5,3.256l-5.933,3.424A5.357,5.357,0,0,1-10883.705-5331.225Zm18.746-10.823a5.389,5.389,0,0,1-4.653-2.685,5.374,5.374,0,0,1,1.963-7.328l15.968-9.217a5.36,5.36,0,0,1,2.678-.72,5.387,5.387,0,0,1,4.653,2.686,5.319,5.319,0,0,1,.533,4.068,5.327,5.327,0,0,1-2.5,3.257l-15.965,9.219A5.358,5.358,0,0,1-10864.959-5342.048Zm847.1-.422a5.384,5.384,0,0,1-4.651-2.683,5.328,5.328,0,0,1-.537-4.069,5.33,5.33,0,0,1,2.5-3.259l5.935-3.426a5.35,5.35,0,0,1,2.674-.72,5.384,5.384,0,0,1,4.651,2.683,5.376,5.376,0,0,1-1.962,7.331l-5.934,3.423A5.37,5.37,0,0,1-10017.861-5342.47Zm-139.969-2.814a5.386,5.386,0,0,1-4.653-2.682,5.374,5.374,0,0,1,1.967-7.328l5.93-3.426a5.375,5.375,0,0,1,2.679-.719,5.386,5.386,0,0,1,4.651,2.682,5.331,5.331,0,0,1,.536,4.072,5.336,5.336,0,0,1-2.5,3.258l-5.93,3.427A5.381,5.381,0,0,1-10157.83-5345.285Zm234.586-5.447a5.358,5.358,0,0,1-3.556-1.348,30.052,30.052,0,0,0-19.857-7.492,30.145,30.145,0,0,0-6.006.606,5.349,5.349,0,0,1-1.078.109,5.382,5.382,0,0,1-4.648-2.685,5.351,5.351,0,0,1,.634-6.244,30.219,30.219,0,0,0,6.519-12.1,30.217,30.217,0,0,0,.45-13.74,5.364,5.364,0,0,1,2.573-5.716,5.367,5.367,0,0,1,2.681-.718,5.368,5.368,0,0,1,3.559,1.347,30.069,30.069,0,0,0,19.866,7.494,30.114,30.114,0,0,0,6-.6,5.38,5.38,0,0,1,1.084-.111,5.38,5.38,0,0,1,4.644,2.683,5.36,5.36,0,0,1-.637,6.244,30.241,30.241,0,0,0-6.518,12.1,30.2,30.2,0,0,0-.451,13.737,5.354,5.354,0,0,1-2.574,5.719A5.358,5.358,0,0,1-9923.244-5350.732Zm-16.357-33.7a40.9,40.9,0,0,1-3.839,14.263,40.987,40.987,0,0,1,14.269,3.808,40.992,40.992,0,0,1,3.839-14.26,40.9,40.9,0,0,1-14.269-3.811Zm-59.516,31.146a5.383,5.383,0,0,1-4.648-2.685,5.324,5.324,0,0,1-.536-4.07,5.33,5.33,0,0,1,2.5-3.258l23.71-13.689a5.363,5.363,0,0,1,2.675-.719,5.39,5.39,0,0,1,4.653,2.685,5.37,5.37,0,0,1-1.964,7.325l-23.71,13.689A5.357,5.357,0,0,1-9999.117-5353.291Zm-179.4-.7a5.385,5.385,0,0,1-4.651-2.685,5.322,5.322,0,0,1-.536-4.069,5.338,5.338,0,0,1,2.5-3.258l5.933-3.424a5.361,5.361,0,0,1,2.679-.72,5.378,5.378,0,0,1,4.648,2.683,5.376,5.376,0,0,1-1.962,7.331l-5.934,3.423A5.342,5.342,0,0,1-10178.518-5353.988Zm39.435-2.119a5.375,5.375,0,0,1-4.651-2.686,5.321,5.321,0,0,1-.537-4.067,5.33,5.33,0,0,1,2.5-3.258l23.71-13.689a5.356,5.356,0,0,1,2.677-.72,5.386,5.386,0,0,1,4.65,2.683,5.372,5.372,0,0,1-1.962,7.328l-23.711,13.689A5.348,5.348,0,0,1-10139.083-5356.107Zm-20.687-8.7a5.4,5.4,0,0,1-4.654-2.685,5.372,5.372,0,0,1,1.963-7.325l17.837-10.3a5.379,5.379,0,0,1,2.678-.719,5.386,5.386,0,0,1,4.651,2.682,5.334,5.334,0,0,1,.535,4.07,5.326,5.326,0,0,1-2.5,3.257l-17.833,10.3A5.379,5.379,0,0,1-10159.771-5364.811Zm-584.1-10.106a9.627,9.627,0,0,1-4.728-1.243,9.585,9.585,0,0,1-3.578-3.548,9.535,9.535,0,0,1-.951-7.266,9.532,9.532,0,0,1,4.456-5.817,9.58,9.58,0,0,1,4.782-1.286,9.642,9.642,0,0,1,4.729,1.243,9.59,9.59,0,0,1,3.576,3.549,9.59,9.59,0,0,1-3.508,13.083A9.569,9.569,0,0,1-10743.871-5374.917Zm568.157-1.34a5.375,5.375,0,0,1-4.648-2.682,5.373,5.373,0,0,1,1.963-7.328l5.933-3.426a5.374,5.374,0,0,1,2.678-.719,5.381,5.381,0,0,1,4.65,2.685,5.322,5.322,0,0,1,.536,4.069,5.33,5.33,0,0,1-2.5,3.256l-5.936,3.426A5.358,5.358,0,0,1-10175.714-5376.257Zm99.3-1.765a5.359,5.359,0,0,1-3.556-1.348,44.848,44.848,0,0,0-29.641-11.184,44.974,44.974,0,0,0-8.962.9,5.412,5.412,0,0,1-1.08.11,5.38,5.38,0,0,1-4.646-2.683,5.359,5.359,0,0,1,.634-6.246,44.937,44.937,0,0,0,5.943-8.528,44.939,44.939,0,0,0,3.787-9.536,44.917,44.917,0,0,0,1.521-10.147,44.925,44.925,0,0,0-.852-10.359,5.366,5.366,0,0,1,2.575-5.716,5.367,5.367,0,0,1,2.683-.72,5.364,5.364,0,0,1,3.556,1.346,44.855,44.855,0,0,0,29.644,11.184,44.965,44.965,0,0,0,8.961-.9,5.386,5.386,0,0,1,1.078-.11,5.381,5.381,0,0,1,4.646,2.685,5.356,5.356,0,0,1-.637,6.243,44.982,44.982,0,0,0-5.942,8.528,44.931,44.931,0,0,0-3.785,9.538,44.913,44.913,0,0,0-1.522,10.147,44.935,44.935,0,0,0,.85,10.359,5.354,5.354,0,0,1-2.574,5.716A5.364,5.364,0,0,1-10076.416-5378.022Zm-25.248-49.1h0a55.965,55.965,0,0,1-1.907,13.348,55.955,55.955,0,0,1-5.05,12.5,55.928,55.928,0,0,1,13.351,1.878,56.028,56.028,0,0,1,12.516,5.021,55.986,55.986,0,0,1,1.907-13.348,56.043,56.043,0,0,1,5.047-12.5,55.949,55.949,0,0,1-13.351-1.876,55.851,55.851,0,0,1-12.512-5.021Zm-822.912,43.54a6.443,6.443,0,0,1-5.564-3.207,6.428,6.428,0,0,1,2.35-8.769,6.425,6.425,0,0,1,3.2-.861,6.438,6.438,0,0,1,5.563,3.208,6.438,6.438,0,0,1-2.347,8.77A6.448,6.448,0,0,1-10924.576-5383.585Zm767.608-3.5a5.384,5.384,0,0,1-4.651-2.683,5.33,5.33,0,0,1-.531-4.071,5.322,5.322,0,0,1,2.5-3.256l23.708-13.687a5.36,5.36,0,0,1,2.68-.721,5.386,5.386,0,0,1,4.65,2.681,5.379,5.379,0,0,1-1.963,7.331l-23.71,13.687A5.375,5.375,0,0,1-10156.968-5387.08Zm-692.539-57.638a6.44,6.44,0,0,1-5.562-3.207,6.375,6.375,0,0,1-.642-4.871,6.375,6.375,0,0,1,2.992-3.9,6.413,6.413,0,0,1,3.2-.862,6.436,6.436,0,0,1,5.563,3.212,6.436,6.436,0,0,1-2.347,8.764A6.435,6.435,0,0,1-10849.507-5444.718Zm782.651-16.811a6.452,6.452,0,0,1-5.568-3.207,6.426,6.426,0,0,1,2.352-8.767,6.417,6.417,0,0,1,3.207-.863,6.433,6.433,0,0,1,5.559,3.21,6.427,6.427,0,0,1-2.349,8.77A6.431,6.431,0,0,1-10066.855-5461.529Zm108.114-39.154a5.359,5.359,0,0,1-3.556-1.348,19.742,19.742,0,0,0-13.042-4.92,19.779,19.779,0,0,0-3.942.4,5.38,5.38,0,0,1-1.084.111,5.377,5.377,0,0,1-4.643-2.683,5.359,5.359,0,0,1,.634-6.244,19.836,19.836,0,0,0,4.282-7.947,19.855,19.855,0,0,0,.295-9.023,5.364,5.364,0,0,1,2.576-5.719,5.37,5.37,0,0,1,2.678-.716,5.353,5.353,0,0,1,3.557,1.348,19.744,19.744,0,0,0,13.046,4.919,19.8,19.8,0,0,0,3.94-.4,5.38,5.38,0,0,1,1.084-.111,5.38,5.38,0,0,1,4.644,2.683,5.353,5.353,0,0,1-.637,6.244,19.868,19.868,0,0,0-4.28,7.949,19.848,19.848,0,0,0-.3,9.021,5.362,5.362,0,0,1-2.575,5.719A5.386,5.386,0,0,1-9958.741-5500.683Zm-10.293-23.189a30.875,30.875,0,0,1-1.758,6.54,30.73,30.73,0,0,1,6.543,1.746,30.785,30.785,0,0,1,1.76-6.54,30.921,30.921,0,0,1-6.545-1.746Zm-926.7,18.81a5.364,5.364,0,0,1-3.559-1.348,19.735,19.735,0,0,0-13.041-4.917,19.824,19.824,0,0,0-3.943.4,5.414,5.414,0,0,1-1.081.11,5.384,5.384,0,0,1-4.646-2.682,5.36,5.36,0,0,1,.637-6.246,19.86,19.86,0,0,0,4.279-7.948,19.864,19.864,0,0,0,.3-9.022,5.35,5.35,0,0,1,2.573-5.713,5.359,5.359,0,0,1,2.681-.72,5.364,5.364,0,0,1,3.559,1.349,19.746,19.746,0,0,0,13.045,4.919,19.792,19.792,0,0,0,3.937-.4,5.38,5.38,0,0,1,1.089-.112,5.373,5.373,0,0,1,4.639,2.682,5.353,5.353,0,0,1-.635,6.246,19.833,19.833,0,0,0-4.281,7.946,19.832,19.832,0,0,0-.295,9.021,5.364,5.364,0,0,1-2.572,5.716A5.368,5.368,0,0,1-10895.73-5505.062Zm-10.294-23.186a30.667,30.667,0,0,1-1.757,6.537,30.874,30.874,0,0,1,6.54,1.746,30.731,30.731,0,0,1,1.76-6.537,30.637,30.637,0,0,1-6.543-1.746Zm865.526-25.6a9.639,9.639,0,0,1-4.728-1.242,9.582,9.582,0,0,1-3.581-3.544,9.589,9.589,0,0,1,3.506-13.083,9.585,9.585,0,0,1,4.781-1.284,9.635,9.635,0,0,1,4.728,1.243,9.568,9.568,0,0,1,3.574,3.548,9.523,9.523,0,0,1,.957,7.267,9.518,9.518,0,0,1-4.463,5.815A9.574,9.574,0,0,1-10040.5-5553.848Zm-874.545-97.945a6.441,6.441,0,0,1-5.562-3.207,6.439,6.439,0,0,1,2.351-8.769,6.41,6.41,0,0,1,3.2-.862,6.442,6.442,0,0,1,5.563,3.209,6.382,6.382,0,0,1,.642,4.872,6.364,6.364,0,0,1-2.99,3.895A6.414,6.414,0,0,1-10915.043-5651.793Zm904.784-6.581a6.439,6.439,0,0,1-5.562-3.209,6.435,6.435,0,0,1,2.348-8.767,6.413,6.413,0,0,1,3.2-.862,6.444,6.444,0,0,1,5.564,3.209,6.38,6.38,0,0,1,.641,4.87,6.374,6.374,0,0,1-2.989,3.9A6.42,6.42,0,0,1-10010.259-5658.374Zm-76.774-13.912a6.442,6.442,0,0,1-5.562-3.21,6.376,6.376,0,0,1-.641-4.872,6.372,6.372,0,0,1,2.992-3.895,6.4,6.4,0,0,1,3.2-.862,6.442,6.442,0,0,1,5.564,3.212,6.431,6.431,0,0,1-2.35,8.764A6.414,6.414,0,0,1-10087.033-5672.286Zm-728.011-34.229h0a5.383,5.383,0,0,1-1.729-1.822,5.356,5.356,0,0,1,.632-6.246,19.623,19.623,0,0,0,4.133-7.423c-1.117,5.1-2.139,10.31-3.034,15.491Zm3.655-18.274h0a19.688,19.688,0,0,0-.173-6.762,5.362,5.362,0,0,1,2.575-5.719,5.5,5.5,0,0,1,.777-.369C-10809.339-5733.419-10810.408-5729.1-10811.389-5724.789Zm-49.94-42.3a6.439,6.439,0,0,1-5.562-3.21,6.376,6.376,0,0,1-.642-4.87,6.368,6.368,0,0,1,2.99-3.9,6.422,6.422,0,0,1,3.205-.86,6.43,6.43,0,0,1,5.561,3.208,6.435,6.435,0,0,1-2.348,8.77A6.433,6.433,0,0,1-10861.329-5767.087Zm796.579-6.677a5.371,5.371,0,0,1-3.559-1.348,19.742,19.742,0,0,0-13.043-4.919,19.8,19.8,0,0,0-3.94.4,5.414,5.414,0,0,1-1.081.11,5.376,5.376,0,0,1-4.644-2.68,5.358,5.358,0,0,1,.634-6.246,19.851,19.851,0,0,0,4.278-7.948,19.853,19.853,0,0,0,.3-9.02,5.355,5.355,0,0,1,2.574-5.717,5.365,5.365,0,0,1,2.681-.718,5.372,5.372,0,0,1,3.559,1.347,19.721,19.721,0,0,0,13.036,4.918,19.758,19.758,0,0,0,3.945-.4,5.4,5.4,0,0,1,1.077-.109,5.38,5.38,0,0,1,4.649,2.682,5.354,5.354,0,0,1-.634,6.246,19.851,19.851,0,0,0-4.281,7.948,19.828,19.828,0,0,0-.3,9.02,5.347,5.347,0,0,1-2.571,5.716A5.364,5.364,0,0,1-10064.75-5773.764Zm-10.3-23.187a30.717,30.717,0,0,1-1.757,6.54,30.777,30.777,0,0,1,6.54,1.746,30.889,30.889,0,0,1,1.76-6.537,30.662,30.662,0,0,1-6.543-1.749Zm-62.232,9.836h0c-1.924-4.4-3.963-8.818-6.06-13.13a7.419,7.419,0,0,1,1.313-.117,7.494,7.494,0,0,1,6.477,3.738,7.474,7.474,0,0,1,.872,5.1,7.482,7.482,0,0,1-2.6,4.4Zm146.274-7.436a9.626,9.626,0,0,1-4.727-1.243,9.584,9.584,0,0,1-3.579-3.548,9.518,9.518,0,0,1-.951-7.268,9.506,9.506,0,0,1,4.458-5.815,9.571,9.571,0,0,1,4.78-1.286,9.626,9.626,0,0,1,4.727,1.243,9.573,9.573,0,0,1,3.575,3.549,9.522,9.522,0,0,1,.954,7.265,9.534,9.534,0,0,1-4.457,5.818A9.586,9.586,0,0,1-9991-5794.551Zm-882.817-50.7a5.387,5.387,0,0,1-4.654-2.683,5.334,5.334,0,0,1-.537-4.072,5.323,5.323,0,0,1,2.5-3.256l5.935-3.424a5.353,5.353,0,0,1,2.679-.721,5.385,5.385,0,0,1,4.649,2.681,5.379,5.379,0,0,1-1.965,7.331l-5.932,3.426A5.381,5.381,0,0,1-10873.821-5845.253Zm-28.433-4.234a5.389,5.389,0,0,1-4.651-2.682,5.372,5.372,0,0,1,1.963-7.328l13.677-7.9a5.353,5.353,0,0,1,2.679-.721,5.386,5.386,0,0,1,4.651,2.684,5.377,5.377,0,0,1-1.965,7.331l-13.677,7.894A5.352,5.352,0,0,1-10902.254-5849.487Zm884.274-6.01a5.384,5.384,0,0,1-4.651-2.683,5.375,5.375,0,0,1,1.965-7.331l5.936-3.427a5.36,5.36,0,0,1,2.672-.717,5.383,5.383,0,0,1,4.652,2.683,5.33,5.33,0,0,1,.536,4.072,5.326,5.326,0,0,1-2.5,3.256l-5.933,3.426A5.37,5.37,0,0,1-10017.979-5855.5Zm-20.687-8.707a5.384,5.384,0,0,1-4.651-2.682,5.376,5.376,0,0,1,1.966-7.328l5.931-3.424a5.37,5.37,0,0,1,2.68-.72,5.386,5.386,0,0,1,4.651,2.684,5.371,5.371,0,0,1-1.966,7.328l-5.933,3.424A5.358,5.358,0,0,1-10038.667-5864.2Zm-837.1-.576a5.386,5.386,0,0,1-4.653-2.686,5.323,5.323,0,0,1-.536-4.069,5.328,5.328,0,0,1,2.5-3.256l10.094-5.829a5.359,5.359,0,0,1,2.679-.721,5.379,5.379,0,0,1,4.648,2.684,5.374,5.374,0,0,1-1.963,7.331l-10.093,5.826A5.359,5.359,0,0,1-10875.763-5864.779Zm131.137-.166h0a5.435,5.435,0,0,1-.738-.995,5.326,5.326,0,0,1-.534-4.069,5.32,5.32,0,0,1,2.5-3.256l5.935-3.426a5.344,5.344,0,0,1,2.677-.721c.125,0,.252,0,.375.013-3.474,4.048-6.91,8.238-10.212,12.454Zm745.394-1.375a5.385,5.385,0,0,1-4.651-2.685,5.317,5.317,0,0,1-.537-4.065,5.335,5.335,0,0,1,2.5-3.26l23.713-13.689a5.353,5.353,0,0,1,2.677-.72,5.374,5.374,0,0,1,4.647,2.684,5.329,5.329,0,0,1,.533,4.069,5.329,5.329,0,0,1-2.5,3.258l-23.708,13.689A5.336,5.336,0,0,1-9999.232-5866.32Zm-20.69-8.706a5.384,5.384,0,0,1-4.651-2.683,5.372,5.372,0,0,1,1.965-7.325l17.837-10.3a5.355,5.355,0,0,1,2.674-.718,5.391,5.391,0,0,1,4.653,2.681,5.332,5.332,0,0,1,.536,4.073,5.33,5.33,0,0,1-2.5,3.258l-17.836,10.3A5.357,5.357,0,0,1-10019.923-5875.026Zm-15.938-11.443a5.386,5.386,0,0,1-4.65-2.683,5.328,5.328,0,0,1-.536-4.071,5.322,5.322,0,0,1,2.5-3.256l5.933-3.427a5.363,5.363,0,0,1,2.677-.72,5.381,5.381,0,0,1,4.65,2.683,5.324,5.324,0,0,1,.536,4.07,5.335,5.335,0,0,1-2.5,3.258l-5.934,3.426A5.37,5.37,0,0,1-10035.861-5886.469Zm-837.1-.58a5.384,5.384,0,0,1-4.651-2.682,5.374,5.374,0,0,1,1.967-7.328l15.969-9.22A5.35,5.35,0,0,1-10857-5907a5.384,5.384,0,0,1,4.651,2.682,5.374,5.374,0,0,1-1.964,7.331l-15.964,9.217A5.364,5.364,0,0,1-10872.962-5887.049Zm931.718-7.685a5.369,5.369,0,0,1-3.558-1.345,30.04,30.04,0,0,0-19.859-7.5,30.118,30.118,0,0,0-6,.606,5.4,5.4,0,0,1-1.079.11,5.374,5.374,0,0,1-4.646-2.683,5.354,5.354,0,0,1,.637-6.243,30.245,30.245,0,0,0,6.517-12.1,30.227,30.227,0,0,0,.449-13.739,5.364,5.364,0,0,1,2.575-5.719,5.375,5.375,0,0,1,2.682-.719,5.354,5.354,0,0,1,3.554,1.347,30.068,30.068,0,0,0,19.871,7.5,30.192,30.192,0,0,0,6-.6,5.354,5.354,0,0,1,1.082-.111,5.377,5.377,0,0,1,4.64,2.681,5.361,5.361,0,0,1-.634,6.246,30.227,30.227,0,0,0-6.517,12.1,30.222,30.222,0,0,0-.449,13.738,5.356,5.356,0,0,1-2.575,5.716A5.357,5.357,0,0,1-9941.244-5894.733Zm-16.357-33.7a40.925,40.925,0,0,1-3.839,14.261,41.01,41.01,0,0,1,14.271,3.808,40.877,40.877,0,0,1,3.836-14.261,40.9,40.9,0,0,1-14.269-3.808Zm-59.516,31.14a5.382,5.382,0,0,1-4.648-2.682,5.373,5.373,0,0,1,1.964-7.331l23.708-13.689a5.376,5.376,0,0,1,2.677-.717,5.385,5.385,0,0,1,4.653,2.683,5.33,5.33,0,0,1,.537,4.071,5.329,5.329,0,0,1-2.5,3.257l-23.712,13.689A5.384,5.384,0,0,1-10017.117-5897.292Zm-734.755-22.624a9.625,9.625,0,0,1-4.728-1.243,9.569,9.569,0,0,1-3.575-3.547,9.525,9.525,0,0,1-.952-7.267,9.516,9.516,0,0,1,4.459-5.816,9.565,9.565,0,0,1,4.78-1.286,9.635,9.635,0,0,1,4.728,1.243,9.56,9.56,0,0,1,3.574,3.546,9.511,9.511,0,0,1,.958,7.268,9.512,9.512,0,0,1-4.465,5.814A9.548,9.548,0,0,1-10751.872-5919.916Zm-180.7-8.667a6.437,6.437,0,0,1-5.562-3.212,6.37,6.37,0,0,1-.642-4.868,6.381,6.381,0,0,1,2.992-3.9,6.405,6.405,0,0,1,3.2-.86,6.441,6.441,0,0,1,5.564,3.21,6.431,6.431,0,0,1-2.351,8.767A6.4,6.4,0,0,1-10932.576-5928.583Zm672.9-8.229h0c-7.682-5.4-15.666-10.562-23.73-15.333a41.019,41.019,0,0,1,12.635,3.644,40.909,40.909,0,0,1,3.835-14.26,40.932,40.932,0,0,1-14.269-3.811,40.931,40.931,0,0,1-3.544,13.637c-3.1-1.816-6.26-3.6-9.385-5.308a29.99,29.99,0,0,0,1.746-17.522,5.354,5.354,0,0,1,2.572-5.719,5.375,5.375,0,0,1,2.682-.719,5.357,5.357,0,0,1,3.557,1.348,30.054,30.054,0,0,0,19.863,7.494,30.136,30.136,0,0,0,6-.605,5.354,5.354,0,0,1,1.077-.109,5.382,5.382,0,0,1,4.647,2.685,5.36,5.36,0,0,1-.638,6.243,30.2,30.2,0,0,0-6.516,12.1,30.23,30.23,0,0,0-.449,13.74,5.372,5.372,0,0,1-.085,2.494Zm-378.45-19.54v0a6.433,6.433,0,0,1,3.052-4.149,6.422,6.422,0,0,1,3.2-.86,6.435,6.435,0,0,1,2.228.4c-2.833,1.491-5.687,3.042-8.481,4.613Zm433.257-20.564a9.649,9.649,0,0,1-4.729-1.244,9.577,9.577,0,0,1-3.579-3.549,9.528,9.528,0,0,1-.95-7.265,9.531,9.531,0,0,1,4.46-5.818,9.576,9.576,0,0,1,4.777-1.283,9.652,9.652,0,0,1,4.729,1.242,9.566,9.566,0,0,1,3.575,3.546,9.512,9.512,0,0,1,.958,7.269,9.517,9.517,0,0,1-4.465,5.817A9.57,9.57,0,0,1-10204.869-5976.917Zm-652.636-12.8a6.443,6.443,0,0,1-5.564-3.212,6.378,6.378,0,0,1-.641-4.869,6.372,6.372,0,0,1,2.991-3.9,6.405,6.405,0,0,1,3.2-.862,6.442,6.442,0,0,1,5.563,3.212,6.429,6.429,0,0,1-2.348,8.764A6.416,6.416,0,0,1-10857.5-5989.716Zm478.3-1.628h0c-4.1-1.013-8.277-1.967-12.419-2.834a6.427,6.427,0,0,1,2.832-3.384,6.418,6.418,0,0,1,3.2-.858,6.44,6.44,0,0,1,5.563,3.208,6.37,6.37,0,0,1,.825,3.868Zm-166.161-2.1a5.377,5.377,0,0,1-4.646-2.685,5.354,5.354,0,0,1,.637-6.241,19.892,19.892,0,0,0,4.277-7.95,19.854,19.854,0,0,0,.3-9.023,5.349,5.349,0,0,1,2.576-5.713,5.352,5.352,0,0,1,2.679-.72,5.364,5.364,0,0,1,3.556,1.346,19.745,19.745,0,0,0,13.043,4.92,19.77,19.77,0,0,0,3.944-.4,5.34,5.34,0,0,1,1.082-.111,5.379,5.379,0,0,1,4.645,2.684,5.349,5.349,0,0,1-.634,6.243,19.687,19.687,0,0,0-4.96,13.522c-6.653,1.031-13.365,2.268-19.95,3.676-.5-.039-1.013-.059-1.52-.059a19.82,19.82,0,0,0-3.947.4A5.4,5.4,0,0,1-10545.361-5993.442Zm11.327-17.432a30.886,30.886,0,0,1-1.757,6.54,30.919,30.919,0,0,1,6.542,1.746,30.874,30.874,0,0,1,1.758-6.54,30.74,30.74,0,0,1-6.543-1.747Zm449.182,5.346a6.452,6.452,0,0,1-5.568-3.209,6.371,6.371,0,0,1-.639-4.868,6.375,6.375,0,0,1,2.987-3.9,6.4,6.4,0,0,1,3.2-.861,6.448,6.448,0,0,1,5.567,3.211,6.429,6.429,0,0,1-2.352,8.767A6.411,6.411,0,0,1-10084.853-6005.528Zm-614.994-15.466a5.36,5.36,0,0,1-3.556-1.348,19.74,19.74,0,0,0-13.037-4.917,19.791,19.791,0,0,0-3.949.4,5.412,5.412,0,0,1-1.08.11,5.38,5.38,0,0,1-4.647-2.685,5.353,5.353,0,0,1,.638-6.246,19.843,19.843,0,0,0,4.282-7.946,19.846,19.846,0,0,0,.3-9.021,5.356,5.356,0,0,1,2.576-5.717,5.359,5.359,0,0,1,2.678-.718,5.368,5.368,0,0,1,3.557,1.347,19.743,19.743,0,0,0,13.043,4.92,19.8,19.8,0,0,0,3.943-.4,5.4,5.4,0,0,1,1.08-.11,5.378,5.378,0,0,1,4.645,2.682,5.357,5.357,0,0,1-.637,6.244,19.851,19.851,0,0,0-4.279,7.948,19.841,19.841,0,0,0-.295,9.02,5.367,5.367,0,0,1-2.577,5.716A5.358,5.358,0,0,1-10699.847-6020.994Zm-10.293-23.191a30.894,30.894,0,0,1-1.757,6.54,30.713,30.713,0,0,1,6.542,1.746,30.847,30.847,0,0,1,1.758-6.54,30.753,30.753,0,0,1-6.543-1.746Zm104.642,3.336a9.63,9.63,0,0,1-4.727-1.242,9.577,9.577,0,0,1-3.579-3.544,9.59,9.59,0,0,1,3.5-13.083,9.576,9.576,0,0,1,4.777-1.283,9.63,9.63,0,0,1,4.727,1.242,9.565,9.565,0,0,1,3.577,3.546,9.589,9.589,0,0,1-3.506,13.083A9.567,9.567,0,0,1-10605.5-6040.849Zm628.757-3.836a5.379,5.379,0,0,1-3.559-1.347,19.73,19.73,0,0,0-13.039-4.918,19.806,19.806,0,0,0-3.944.4,5.412,5.412,0,0,1-1.08.11,5.379,5.379,0,0,1-4.645-2.682,5.361,5.361,0,0,1,.634-6.246,19.85,19.85,0,0,0,4.28-7.946,19.848,19.848,0,0,0,.3-9.021,5.364,5.364,0,0,1,2.573-5.719,5.373,5.373,0,0,1,2.683-.719,5.36,5.36,0,0,1,3.558,1.348,19.725,19.725,0,0,0,13.042,4.921,19.792,19.792,0,0,0,3.939-.4,5.38,5.38,0,0,1,1.084-.111,5.382,5.382,0,0,1,4.646,2.681,5.358,5.358,0,0,1-.637,6.246,19.838,19.838,0,0,0-4.282,7.948,19.853,19.853,0,0,0-.295,9.022,5.353,5.353,0,0,1-2.575,5.713A5.352,5.352,0,0,1-9976.741-6044.685Zm-10.293-23.186a30.487,30.487,0,0,1-1.757,6.537,30.775,30.775,0,0,1,6.542,1.746,30.7,30.7,0,0,1,1.758-6.537,30.906,30.906,0,0,1-6.543-1.746Zm-323.471,21.155a6.444,6.444,0,0,1-5.565-3.21,6.43,6.43,0,0,1,2.352-8.769,6.412,6.412,0,0,1,3.2-.86,6.444,6.444,0,0,1,5.565,3.21,6.434,6.434,0,0,1-2.349,8.767A6.41,6.41,0,0,1-10310.5-6046.716Zm157.658-31.278a5.362,5.362,0,0,1-3.559-1.345,19.733,19.733,0,0,0-13.039-4.921,19.806,19.806,0,0,0-3.944.4,5.345,5.345,0,0,1-1.084.111,5.37,5.37,0,0,1-4.641-2.683,5.352,5.352,0,0,1,.634-6.244,19.859,19.859,0,0,0,4.281-7.947,19.84,19.84,0,0,0,.3-9.022,5.354,5.354,0,0,1,2.576-5.714,5.346,5.346,0,0,1,2.679-.72,5.368,5.368,0,0,1,3.556,1.346,19.741,19.741,0,0,0,13.044,4.919,19.792,19.792,0,0,0,3.939-.4,5.345,5.345,0,0,1,1.084-.111,5.377,5.377,0,0,1,4.644,2.683,5.361,5.361,0,0,1-.634,6.246,19.846,19.846,0,0,0-4.282,7.945,19.843,19.843,0,0,0-.295,9.02l-.006,0a5.354,5.354,0,0,1-2.571,5.716A5.381,5.381,0,0,1-10152.847-6077.994Zm-10.293-23.189a30.763,30.763,0,0,1-1.76,6.538,30.708,30.708,0,0,1,6.545,1.746,30.847,30.847,0,0,1,1.758-6.54,30.9,30.9,0,0,1-6.543-1.744Zm-730.675,5.014a9.63,9.63,0,0,1-4.727-1.242,9.581,9.581,0,0,1-3.579-3.544,9.5,9.5,0,0,1-.957-7.267,9.5,9.5,0,0,1,4.464-5.812,9.567,9.567,0,0,1,4.779-1.286,9.622,9.622,0,0,1,4.726,1.243,9.564,9.564,0,0,1,3.574,3.546,9.513,9.513,0,0,1,.957,7.267,9.5,9.5,0,0,1-4.459,5.813A9.579,9.579,0,0,1-10893.814-6096.169Zm835.316-1.678a9.63,9.63,0,0,1-4.727-1.242,9.569,9.569,0,0,1-3.579-3.543,9.511,9.511,0,0,1-.958-7.268,9.512,9.512,0,0,1,4.465-5.815,9.572,9.572,0,0,1,4.779-1.284,9.635,9.635,0,0,1,4.727,1.242,9.564,9.564,0,0,1,3.573,3.546,9.592,9.592,0,0,1-3.5,13.083A9.574,9.574,0,0,1-10058.5-6097.847Z" transform="translate(10963.868 6145.385)" fill="#fff" opacity="0.17"/></g></svg>