<svg width="1000" height="1000" viewBox="0 0 1000 1000" fill="none" xmlns="http://www.w3.org/2000/svg">
<g opacity="0.78">
<path opacity="0.78" d="M856.401 500.001C856.401 696.835 696.836 856.401 500.001 856.401C303.166 856.401 143.601 696.834 143.601 500.001C143.601 303.168 303.167 143.601 500.001 143.601C696.494 144.423 855.579 303.508 856.401 500.001Z" fill="#E8E8E8"/>
<g opacity="0.78">
<path opacity="0.78" d="M187.057 447.793C186.334 447.794 185.614 447.722 184.906 447.576C183.509 447.296 182.181 446.743 180.997 445.949C179.814 445.155 178.798 444.136 178.009 442.95C177.22 441.763 176.672 440.433 176.397 439.035C176.122 437.637 176.125 436.198 176.406 434.801C186.148 386.877 206.39 341.708 235.676 302.543C237.402 300.241 239.972 298.719 242.821 298.312C244.231 298.111 245.667 298.189 247.048 298.542C248.428 298.896 249.725 299.518 250.864 300.373C252.004 301.227 252.965 302.298 253.691 303.524C254.416 304.75 254.894 306.107 255.095 307.517C255.297 308.928 255.219 310.364 254.865 311.744C254.512 313.124 253.89 314.421 253.035 315.561C225.676 352.144 206.768 394.337 197.669 439.103C197.17 441.551 195.842 443.753 193.909 445.336C191.976 446.919 189.556 447.787 187.057 447.793V447.793Z" fill="#CDCDCD"/>
<path opacity="0.78" d="M290.89 269.859C288.681 269.859 286.524 269.185 284.708 267.926C282.893 266.667 281.505 264.883 280.73 262.814C279.956 260.745 279.832 258.489 280.375 256.347C280.918 254.205 282.101 252.281 283.768 250.83C294.738 241.301 306.32 232.502 318.441 224.488C319.629 223.703 320.961 223.16 322.359 222.889C323.758 222.618 325.196 222.626 326.591 222.911C327.987 223.196 329.313 223.754 330.493 224.551C331.673 225.349 332.684 226.371 333.469 227.56C334.255 228.748 334.798 230.079 335.068 231.478C335.339 232.876 335.331 234.314 335.046 235.71C334.761 237.105 334.204 238.431 333.406 239.611C332.609 240.791 331.586 241.803 330.398 242.588C319.073 250.078 308.249 258.302 297.998 267.206C296.027 268.921 293.502 269.863 290.89 269.859V269.859Z" fill="#CDCDCD"/>
<path opacity="0.78" d="M439.549 385.129C469.831 385.129 494.379 360.581 494.379 330.299C494.379 300.017 469.831 275.469 439.549 275.469C409.267 275.469 384.719 300.017 384.719 330.299C384.719 360.581 409.267 385.129 439.549 385.129Z" fill="#CDCDCD"/>
<path opacity="0.78" d="M849.581 569.669C842.634 604.662 830.452 638.408 813.445 669.769C805.156 668.921 797.17 666.195 790.092 661.799C783.015 657.403 777.032 651.452 772.597 644.398C768.163 637.345 765.395 629.373 764.502 621.089C763.609 612.805 764.615 604.427 767.444 596.59C770.273 588.753 774.851 581.664 780.829 575.861C786.808 570.058 794.03 565.693 801.947 563.098C809.864 560.503 818.269 559.746 826.523 560.884C834.776 562.023 842.662 565.027 849.581 569.669V569.669Z" fill="#CDCDCD"/>
<path opacity="0.78" d="M332.059 644.222C362.341 644.222 386.889 619.674 386.889 589.392C386.889 559.11 362.341 534.562 332.059 534.562C301.777 534.562 277.229 559.11 277.229 589.392C277.229 619.674 301.777 644.222 332.059 644.222Z" fill="#CDCDCD"/>
<path opacity="0.78" d="M606.523 713.666C627.062 713.666 643.712 697.016 643.712 676.477C643.712 655.938 627.062 639.288 606.523 639.288C585.984 639.288 569.334 655.938 569.334 676.477C569.334 697.016 585.984 713.666 606.523 713.666Z" fill="#CDCDCD"/>
<path opacity="0.78" d="M649.948 464.62C670.487 464.62 687.137 447.97 687.137 427.431C687.137 406.892 670.487 390.242 649.948 390.242C629.409 390.242 612.759 406.892 612.759 427.431C612.759 447.97 629.409 464.62 649.948 464.62Z" fill="#CDCDCD"/>
<path opacity="0.78" d="M618.877 356.679C629.147 356.679 637.472 348.354 637.472 338.084C637.472 327.814 629.147 319.489 618.877 319.489C608.607 319.489 600.282 327.814 600.282 338.084C600.282 348.354 608.607 356.679 618.877 356.679Z" fill="#CDCDCD"/>
</g>
</g>
<path d="M473.615 410.538C472.516 408.705 470.927 407.214 469.028 406.232C467.129 405.25 464.995 404.817 462.863 404.98L369.404 412.199C364.764 412.543 360.265 413.95 356.255 416.31C352.245 418.671 348.831 421.921 346.278 425.811L307.058 485.129C305.114 488.069 303.941 491.45 303.645 494.962C303.35 498.474 303.942 502.004 305.368 505.227C306.794 508.45 309.007 511.263 311.804 513.407C314.602 515.551 317.893 516.958 321.376 517.497L397.158 529.235C399.363 529.578 401.619 529.271 403.653 528.353C405.686 527.435 407.408 525.945 408.609 524.064L473.44 422.64C474.591 420.838 475.218 418.752 475.248 416.614C475.279 414.476 474.714 412.372 473.615 410.538Z" fill="#E45A6E"/>
<path d="M589.141 526.064C587.307 524.966 585.203 524.401 583.066 524.432C580.929 524.463 578.842 525.089 577.041 526.24L475.615 591.072C473.735 592.273 472.245 593.995 471.327 596.029C470.409 598.062 470.102 600.318 470.443 602.523L482.18 678.305C482.716 681.79 484.12 685.084 486.264 687.884C488.407 690.683 491.221 692.898 494.445 694.325C497.67 695.751 501.201 696.343 504.715 696.045C508.228 695.748 511.61 694.571 514.549 692.623L573.872 653.401C577.761 650.848 581.011 647.434 583.371 643.424C585.73 639.414 587.136 634.915 587.479 630.275L594.698 536.817C594.863 534.685 594.43 532.55 593.448 530.65C592.466 528.751 590.975 527.162 589.14 526.064H589.141Z" fill="#D82E44"/>
<path d="M451.435 619.659C453.687 621.923 456.446 623.617 459.484 624.599C462.522 625.582 465.75 625.826 468.901 625.31C562.526 609.655 636.614 532.137 664.819 477.61C696.138 417.059 697.295 353.068 695.661 323.059C695.393 318.096 693.301 313.407 689.786 309.892C686.272 306.378 681.583 304.285 676.62 304.017C646.611 302.381 582.62 303.541 522.073 334.861C467.543 363.066 390.024 437.153 374.373 530.779C373.857 533.93 374.101 537.158 375.084 540.196C376.067 543.234 377.76 545.993 380.024 548.245L451.435 619.659Z" fill="#F1F1FB"/>
<path d="M689.786 309.893L415.729 583.952L451.437 619.66C453.689 621.924 456.448 623.617 459.486 624.6C462.524 625.583 465.752 625.827 468.903 625.311C562.528 609.656 636.615 532.138 664.821 477.611C696.141 417.06 697.301 353.073 695.664 323.064C695.399 318.1 693.306 313.41 689.789 309.897L689.786 309.893Z" fill="#D7D6FB"/>
<path d="M572.47 484.687C559.178 484.676 546.301 480.056 536.033 471.616C525.765 463.176 518.741 451.436 516.157 438.398C513.573 425.36 515.59 411.829 521.863 400.11C528.137 388.392 538.279 379.211 550.562 374.132C562.845 369.052 576.509 368.389 589.227 372.254C601.944 376.119 612.929 384.274 620.308 395.329C627.688 406.384 631.006 419.656 629.698 432.883C628.39 446.11 622.537 458.475 613.135 467.871C607.799 473.215 601.459 477.451 594.481 480.337C587.502 483.223 580.022 484.701 572.47 484.687V484.687ZM539.94 394.681H539.948H539.94Z" fill="#466288"/>
<path d="M374.369 530.779C373.853 533.93 374.097 537.158 375.08 540.196C376.063 543.234 377.756 545.993 380.02 548.245L451.435 619.66C453.687 621.924 456.446 623.617 459.484 624.6C462.522 625.583 465.75 625.827 468.901 625.311C488.975 621.865 508.503 615.767 526.97 607.177L392.503 472.711C383.913 491.178 377.815 510.705 374.369 530.779V530.779Z" fill="#466288"/>
<path d="M315.287 627.066C316.798 627.068 318.294 626.771 319.689 626.193C321.085 625.615 322.352 624.767 323.419 623.697L360.972 586.151C363.129 583.994 364.34 581.069 364.34 578.019C364.34 574.969 363.129 572.044 360.972 569.887C358.815 567.73 355.89 566.519 352.84 566.519C349.79 566.519 346.865 567.73 344.708 569.887L307.16 607.432C305.551 609.04 304.455 611.089 304.011 613.319C303.567 615.55 303.794 617.863 304.664 619.964C305.534 622.066 307.007 623.862 308.898 625.126C310.789 626.391 313.012 627.066 315.287 627.066V627.066Z" fill="#FDB43A"/>
<path d="M395.383 604.296C394.315 603.228 393.047 602.381 391.652 601.803C390.257 601.225 388.761 600.927 387.251 600.927C385.741 600.927 384.245 601.225 382.85 601.803C381.455 602.381 380.187 603.228 379.119 604.296L306.929 676.481C305.861 677.549 305.014 678.817 304.436 680.212C303.858 681.607 303.561 683.103 303.561 684.613C303.561 686.123 303.858 687.619 304.436 689.014C305.014 690.409 305.861 691.677 306.929 692.745C307.997 693.813 309.265 694.66 310.66 695.238C312.055 695.816 313.551 696.113 315.061 696.113C316.571 696.113 318.067 695.816 319.462 695.238C320.857 694.66 322.125 693.813 323.193 692.745L395.382 620.555C397.537 618.399 398.748 615.475 398.749 612.426C398.749 609.377 397.538 606.453 395.383 604.296V604.296Z" fill="#FDB43A"/>
<path d="M429.794 638.711C428.726 637.643 427.458 636.796 426.063 636.218C424.668 635.64 423.172 635.342 421.662 635.342C420.152 635.342 418.656 635.64 417.261 636.218C415.866 636.796 414.598 637.643 413.53 638.711L375.982 676.255C373.825 678.412 372.614 681.337 372.614 684.387C372.614 687.438 373.826 690.363 375.983 692.52C378.139 694.676 381.065 695.888 384.115 695.888C387.165 695.888 390.09 694.676 392.247 692.519L429.795 654.971C431.951 652.814 433.161 649.89 433.161 646.841C433.161 643.792 431.95 640.867 429.794 638.711V638.711Z" fill="#F57A21"/>
<path d="M306.932 692.75C308 693.818 309.268 694.665 310.663 695.243C312.058 695.821 313.554 696.119 315.064 696.119C316.574 696.119 318.07 695.821 319.465 695.243C320.86 694.665 322.128 693.818 323.196 692.75L395.383 620.556C396.451 619.488 397.298 618.22 397.876 616.825C398.454 615.43 398.752 613.934 398.752 612.424C398.752 610.914 398.454 609.418 397.876 608.023C397.298 606.628 396.451 605.36 395.383 604.292L306.932 692.75Z" fill="#F57A21"/>
<path d="M415.729 583.952L451.437 619.66C453.689 621.924 456.448 623.617 459.486 624.6C462.524 625.583 465.752 625.827 468.903 625.311C488.976 621.865 508.503 615.766 526.969 607.176L459.736 539.943L415.729 583.952Z" fill="#354A67"/>
<path d="M531.81 467.871C542.594 478.655 557.22 484.713 572.471 484.712C587.722 484.712 602.348 478.654 613.132 467.869C623.915 457.085 629.973 442.459 629.973 427.208C629.973 411.958 623.914 397.332 613.13 386.548L531.81 467.871Z" fill="#354A67"/>
<path d="M572.469 392.724C564.494 392.732 556.769 395.504 550.609 400.568C544.449 405.633 540.235 412.676 538.686 420.499C537.136 428.322 538.347 436.439 542.111 443.47C545.876 450.5 551.961 456.008 559.331 459.055C566.7 462.101 574.898 462.499 582.528 460.18C590.158 457.86 596.748 452.967 601.175 446.334C605.602 439.702 607.593 431.739 606.807 423.803C606.022 415.867 602.51 408.449 596.869 402.812C593.667 399.606 589.863 397.064 585.676 395.333C581.488 393.602 577 392.715 572.469 392.724V392.724Z" fill="#4BBEFD"/>
<path d="M596.862 402.814L548.069 451.607C554.539 458.077 563.315 461.712 572.466 461.712C581.616 461.712 590.392 458.077 596.862 451.607C603.332 445.137 606.967 436.361 606.967 427.21C606.967 418.06 603.332 409.284 596.862 402.814V402.814Z" fill="#0590FB"/>
</svg>
