<svg xmlns="http://www.w3.org/2000/svg" xmlns:xlink="http://www.w3.org/1999/xlink" width="1000" height="1000" viewBox="0 0 1000 1000"><defs><clipPath id="b"><rect width="1000" height="1000"/></clipPath></defs><g id="a" clip-path="url(#b)"><g opacity="0.78"><path d="M1000,500c0,276.142-223.858,500-500,500S0,776.142,0,500,223.858,0,500,0c275.663,1.153,498.847,224.337,500,500Z" transform="translate(0)" fill="#e8e8e8"/><g transform="translate(45.724 110.955)"><path d="M15.241,209.862a14.857,14.857,0,0,1-3.017-.3A15.217,15.217,0,0,1,.3,191.636,464.286,464.286,0,0,1,83.45,6.088,15.217,15.217,0,0,1,107.8,24.349,433.6,433.6,0,0,0,30.128,197.67,15.235,15.235,0,0,1,15.241,209.862Z" transform="translate(0 105.94)" fill="#cdcdcd"/><path d="M15.218,66.175a15.217,15.217,0,0,1-9.991-26.7A466.483,466.483,0,0,1,53.871,2.523,15.217,15.217,0,1,1,70.645,27.916,436.654,436.654,0,0,0,25.192,62.453,15.148,15.148,0,0,1,15.218,66.175Z" transform="translate(145.692)" fill="#cdcdcd"/><circle cx="76.922" cy="76.922" r="76.922" transform="translate(292.546 74.045)" fill="#cdcdcd"/><path d="M119.8,13.043a498.053,498.053,0,0,1-50.7,140.435A76.939,76.939,0,1,1,119.8,13.043Z" transform="translate(824.908 473.74)" fill="#cdcdcd"/><circle cx="76.922" cy="76.922" r="76.922" transform="translate(141.746 437.532)" fill="#cdcdcd"/><circle cx="52.174" cy="52.174" r="52.174" transform="translate(551.545 584.453)" fill="#cdcdcd"/><circle cx="52.174" cy="52.174" r="52.174" transform="translate(612.467 235.062)" fill="#cdcdcd"/><circle cx="26.087" cy="26.087" r="26.087" transform="translate(594.963 135.801)" fill="#cdcdcd"/></g></g><g transform="translate(224.407 224.408)"><path d="M238.577,140.08a16.15,16.15,0,0,0-15.085-7.8L92.376,142.411A42.579,42.579,0,0,0,59.933,161.5L4.908,244.726a29.491,29.491,0,0,0,20.087,45.409L131.311,306.6a16.121,16.121,0,0,0,16.065-7.254l90.953-142.289A16.138,16.138,0,0,0,238.577,140.08Z" transform="translate(0 10.003)" fill="#e45a6e"/><path d="M384.2,290.366a16.136,16.136,0,0,0-16.979.247L224.932,381.567a16.138,16.138,0,0,0-7.255,16.065l16.466,106.317a29.471,29.471,0,0,0,45.41,20.088l83.226-55.026a42.567,42.567,0,0,0,19.09-32.444L392,305.452a16.134,16.134,0,0,0-7.8-15.086Z" transform="translate(16.451 21.791)" fill="#d82e44"/><path d="M200.5,443.464a28.145,28.145,0,0,0,24.5,7.927C356.352,429.429,460.29,320.677,499.86,244.174,543.8,159.226,545.426,69.458,543.13,27.357A28.281,28.281,0,0,0,516.416.643c-42.1-2.3-131.869-.668-216.817,43.271C223.1,83.484,114.345,187.422,92.383,318.771a28.148,28.148,0,0,0,7.928,24.5Z" transform="translate(6.959 0)" fill="#f1f1fb"/><path d="M530.781,8.261,146.3,392.744l50.095,50.095a28.148,28.148,0,0,0,24.5,7.928C352.245,428.8,456.183,320.052,495.753,243.55c43.939-84.948,45.566-174.717,43.27-216.817a28.235,28.235,0,0,0-8.242-18.472Z" transform="translate(11.066 0.625)" fill="#d7d6fb"/><path d="M356.4,247.579a80.609,80.609,0,1,1,57.044-23.591A80.407,80.407,0,0,1,356.4,247.579ZM310.768,121.308h.011Z" transform="translate(20.857 6.529)" fill="#466288"/><path d="M92.383,302.083a28.148,28.148,0,0,0,7.927,24.5L200.5,426.776A28.148,28.148,0,0,0,225,434.7a322.519,322.519,0,0,0,81.466-25.441L117.824,220.618a322.514,322.514,0,0,0-25.441,81.465Z" transform="translate(6.959 16.689)" fill="#466288"/><path d="M16.439,427.912a16.083,16.083,0,0,0,11.408-4.726l52.677-52.677A16.135,16.135,0,1,0,57.707,347.69L5.03,400.368a16.135,16.135,0,0,0,11.408,27.544Z" transform="translate(0.023 25.943)" fill="#fdb43a"/><path d="M128.823,392.572a16.136,16.136,0,0,0-22.818,0L4.729,493.848a16.134,16.134,0,1,0,22.818,22.817L128.823,415.389A16.133,16.133,0,0,0,128.823,392.572Z" transform="translate(0 29.338)" fill="#fdb43a"/><path d="M170.286,437.453a16.136,16.136,0,0,0-22.818,0L94.792,490.13a16.134,16.134,0,1,0,22.817,22.818l52.677-52.677A16.133,16.133,0,0,0,170.286,437.453Z" transform="translate(6.813 32.733)" fill="#f57a21"/><path d="M4.4,516.334a16.134,16.134,0,0,0,22.818,0L128.491,415.057a16.134,16.134,0,0,0,0-22.818Z" transform="translate(0.332 29.671)" fill="#f57a21"/><path d="M146.3,370.048l50.095,50.095a28.148,28.148,0,0,0,24.5,7.928,322.523,322.523,0,0,0,81.466-25.441L208.04,308.307Z" transform="translate(11.066 23.322)" fill="#354a67"/><path d="M297.7,222.329A80.673,80.673,0,0,0,411.786,108.24Z" transform="translate(22.519 8.188)" fill="#354a67"/><path d="M354.134,116.295a48.363,48.363,0,1,0,34.228,14.153,48.25,48.25,0,0,0-34.228-14.153Z" transform="translate(23.126 8.797)" fill="#4bbefd"/><path d="M387.364,129.454l-68.453,68.453a48.4,48.4,0,0,0,68.453-68.453Z" transform="translate(24.123 9.793)" fill="#0590fb"/></g></g></svg>